<?xml version="1.0" encoding="utf-8"?>
<!-- Generator: Adobe Illustrator 22.0.0, SVG Export Plug-In . SVG Version: 6.00 Build 0)  -->
<svg version="1.1" id="Layer_1" xmlns="http://www.w3.org/2000/svg" xmlns:xlink="http://www.w3.org/1999/xlink" x="0px" y="0px"
	 viewBox="0 0 595.3 551.3" style="enable-background:new 0 0 595.3 551.3;" xml:space="preserve">
<style type="text/css">
	.st0{fill:url(#SVGID_1_);}
	.st1{fill:url(#SVGID_2_);}
	.st2{fill:url(#SVGID_3_);}
	.st3{fill:url(#SVGID_4_);}
	.st4{fill:#F7F7F7;}
	.st5{fill:url(#SVGID_5_);}
	.st6{fill:#FFFFFF;}
	.st7{fill:url(#SVGID_6_);}
	.st8{fill:url(#SVGID_7_);}
	.st9{fill:url(#SVGID_8_);}
	.st10{fill:url(#SVGID_9_);}
	.st11{fill:url(#SVGID_10_);}
	.st12{fill:url(#SVGID_11_);}
	.st13{fill:url(#SVGID_12_);}
	.st14{fill:url(#SVGID_13_);}
	.st15{fill:url(#SVGID_14_);}
	.st16{fill:url(#SVGID_15_);}
	.st17{fill:url(#SVGID_16_);}
	.st18{fill:url(#SVGID_17_);}
	.st19{fill:url(#SVGID_18_);}
	.st20{fill:url(#SVGID_19_);}
	.st21{fill:url(#SVGID_20_);}
</style>
<g>
	<g>
		<path d="M246.5,160c-0.6-1-1.1-1.7-1.5-2.4c-2.9-4.4-4.2-9.3-4.6-14.5c-0.6-7.3,1.2-14.2,4.2-20.7c2.8-6,6.5-11.5,10.8-16.6
			c3.1-3.8,6.6-7.2,10.1-10.5c1-1,2.1-1.8,3.5-2.3c2.2-0.8,5.4,0.3,6.7,2.4c0.3,0.4,0.5,0.9,0.7,1.4c1.7,4.7,4.7,8.7,7.8,12.6
			c4.4,5.3,9,10.4,14.2,14.9c0.4,0.4,1,0.7,1.3,1c1-0.1,1.5-0.8,2-1.4c2.8-3.2,5.6-6.4,8.4-9.7c5.1-5.9,10.1-11.7,15.2-17.6
			c5.5-6.3,10.9-12.7,16.4-19c1-1.1,1.4-2.3,1.6-3.8c0.6-6.1,1.1-12.3,1.7-18.4c0.4-4.3,0.9-8.6,1.4-13c0.1-0.5,0.1-1,0.2-1.5
			c0.6-2.4,2.7-4.5,5.7-4.3c1.3,0.1,2.5,0.5,3.8,1c5.7,2.4,11.3,5,16.8,7.8c20.5,10.5,39.6,23.2,57.3,38.1
			c6.9,5.9,13.6,12,19.8,18.5c14.3,14.9,26.6,31.2,36.5,49.4c10.3,18.8,17.6,38.8,21.7,59.9c1.3,6.4,2.2,12.9,2.9,19.3
			c0.4,3.4,0.4,6.8,0.7,10.1c0.5,5.4,0.5,10.8,0.4,16.2c-0.7,25.7-0.2,51.3-0.3,77c-0.1,25.6,0,51.2,0,76.7c0,1.2,0,2.4,0,3.7
			c-0.1,2.7-1.5,4.6-3.8,5.7c-0.6,0.3-1.3,0.5-1.9,0.8c-9.1,3.2-18.2,6.4-27.4,9.5c-3,1-6.1,1.5-9.1,2.2c-9.6,2.1-19.2,4.2-28.8,6.3
			c-11,2.4-21.9,4.7-32.9,7.1c-10.5,2.3-20.9,4.5-31.4,6.8c-19,4.1-38.1,8.3-57.1,12.4c-14.4,3.1-28.7,6.2-43.1,9.4
			c-14.4,3.1-28.9,6.3-43.3,9.4c-16.9,3.7-33.8,7.3-50.7,11c-14,3-28,6.1-42.1,9.2c-16.2,3.5-32.5,7.1-48.7,10.5
			c-1.1,0.2-2.3,0.3-3.4,0.3c-2.5-0.1-4.4-1.9-4.8-4.4c-0.1-0.9-0.1-1.7-0.1-2.6c0-42.4,0-84.8,0-127.1c0-0.4,0-0.9,0-1.3
			c-0.1-1.9,0.6-3.6,1.9-5c2.1-2.4,4.2-4.9,6.3-7.3c6.5-7.5,13-15,19.5-22.5c6-6.9,12-13.8,17.9-20.7c6.1-7.1,12.3-14.2,18.4-21.3
			c4.9-5.7,9.8-11.3,14.7-17c5.1-5.9,10.1-11.7,15.2-17.6c4.9-5.7,9.9-11.4,14.9-17.2c3.7-4.3,7.4-8.6,11.1-12.8
			c0.9-1,1.2-2,1.1-3.3c-0.7-6.9,0.4-13.5,3-19.9c3.4-8.3,9-15,15.8-20.8c1.2-1,2.4-2,3.7-2.8c1.2-0.8,1.8-1.8,1.7-3.2
			c0-1.6,0.1-3.1,0.3-4.7c0.7-4.3,2.6-8.1,5.2-11.5c2.4-3,5.1-5.7,8.2-8c1-0.7,2-1.4,2.9-2.2C245.5,161,245.9,160.6,246.5,160z
			 M105.2,368.7c0.8,0.6,1.4,0.4,2.1,0.2c4.2-0.9,8.3-1.7,12.5-2.6c11.1-2.3,22.1-4.7,33.2-7c14.7-3.1,29.4-6.2,44.2-9.3
			c16.6-3.5,33.2-7,49.8-10.5c18.9-4,37.8-7.9,56.7-11.9c20.7-4.3,41.4-8.7,62-13c18.3-3.8,36.6-7.7,54.9-11.5
			c13.1-2.8,26.2-5.5,39.3-8.3c2.9-0.6,5.8-1.3,8.7-1.9c0.9-0.2,1.4-0.7,1.4-1.6c0.1-1.9,0.3-3.8,0.4-5.7c0.1-3.7-0.2-7.3-0.3-10.9
			c-0.2-5.3-0.5-10.6-1-15.9c-0.6-6.8-1.6-13.5-2.9-20.1c-2.2-11.6-5.5-23-9.6-34.1c-5.1-13.6-11.6-26.5-19.3-38.7
			c-8.7-13.6-18.8-26.1-30.2-37.5c-2.6-2.6-5.2-5.1-8-7.5c-3.4-3-6.7-6-10.2-8.9c-6.9-5.7-14.2-10.9-21.7-15.8
			c-5.3-3.4-10.6-6.6-16.2-9.4c-0.4-0.2-0.9-0.3-1.7-0.6c-0.3,0.4-0.6,0.9-0.9,1.3c-4.2,4.9-8.5,9.7-12.7,14.6
			c-3.8,4.3-7.5,8.7-11.2,13.1c-4.9,5.7-9.8,11.3-14.7,16.9c-0.3,0.4-0.5,0.9-0.8,1.3c0.3,0.4,0.5,0.7,0.7,0.9
			c1.7,1.4,3.3,2.8,5.1,4.1c3.2,2.4,6,5.3,8.4,8.5c2,2.7,4,5.5,5.8,8.4c6.2,9.5,11.1,19.7,14.8,30.4c3.1,8.9,5.3,18,6.6,27.3
			c0.5,3.2,0.9,6.4,1.1,9.6c0.2,3.6,0.1,7.1,0.1,10.7c0,2.5-0.4,5-1,7.5c-1.9,7.9-5.8,14.7-11.2,20.7c-5.2,5.8-11.3,10.3-18.1,14
			c-13.1,7.1-27.3,10.2-42.1,10.6c-5.3,0.2-10.6-0.3-15.9-1.1c-11.2-1.7-21.8-5.1-31.6-10.9c-5-3-9.7-6.5-13.8-10.7
			c-3.6-3.7-6.7-7.8-9.1-12.4c-0.2-0.4-0.4-0.8-1.2-0.8c-0.7,0.5-1.3,1.3-2,2.1c-2,2.3-4,4.6-6,6.9c-2.8,3.2-5.6,6.5-8.3,9.7
			c-2.6,3-5.1,5.9-7.7,8.9c-2.8,3.2-5.6,6.4-8.4,9.6c-4,4.6-7.9,9.2-11.9,13.8c-3.7,4.3-7.4,8.5-11.1,12.8
			c-4.1,4.7-8.2,9.5-12.3,14.2c-3.8,4.3-7.5,8.7-11.3,13c-3.8,4.4-7.6,8.8-11.4,13.2c-3.8,4.3-7.5,8.7-11.3,13
			C105.6,367.8,105.5,368.2,105.2,368.7z M94.9,461.7c1.2,0.4,2.2-0.1,3.2-0.3c10.9-2.3,21.8-4.7,32.6-7.1
			c15.1-3.3,30.3-6.5,45.4-9.7c14.4-3.1,28.7-6.2,43.1-9.3c14.6-3.2,29.2-6.3,43.9-9.5c12.3-2.7,24.6-5.4,37-8
			c16.6-3.6,33.2-7.1,49.7-10.7c13.8-3,27.5-6,41.3-9c9.6-2.1,19.2-4.1,28.8-6.2c3.1-0.7,6.3-1.3,9.3-2.5c3.5-1.4,7-2.8,10.3-4.5
			c7.6-4.1,14.6-9,20.3-15.7c6.4-7.5,10-16.1,10.1-26c0.2-11.9,0.1-23.8,0.1-35.8c0-0.6-0.1-1.2-0.2-1.8c-0.1-0.5-0.5-0.8-0.9-0.8
			c-0.5,0-1,0-1.5,0.1c-1.1,0.2-2.2,0.5-3.3,0.7c-11.4,2.4-22.8,4.8-34.2,7.2c-9.3,1.9-18.5,3.9-27.8,5.9c-13,2.7-26.1,5.4-39.1,8.1
			c-15.2,3.2-30.5,6.4-45.7,9.6c-15.5,3.3-31,6.5-46.5,9.7c-9.8,2-19.6,4.1-29.4,6.2c-9.3,1.9-18.6,3.9-27.8,5.8
			c-11.1,2.3-22.1,4.7-33.2,7c-12.9,2.7-25.9,5.4-38.8,8.1c-14,2.9-27.9,5.9-41.9,8.8c-1,0.2-2,0.4-3.1,0.7c-2,0.5-2.1,0.6-2.2,2.6
			c0,0.7,0,1.4,0,2.1c0,21.1,0,42.1,0,63.2c0,2.8,0,5.6,0,8.4C94.5,459.9,94.3,460.8,94.9,461.7z M469.6,375.9
			c-0.9,0.2-1.3,0.9-1.8,1.5c-2.7,3.4-6,6.2-9.5,8.9c-6,4.7-12.6,8.4-19.5,11.5c-4.1,1.8-8.2,3.4-12.5,4.4
			c-6.5,1.4-13.1,2.8-19.6,4.2c-15.8,3.4-31.6,6.8-47.4,10.2c-14.5,3.1-29.1,6.3-43.6,9.4c-19.4,4.2-38.8,8.4-58.1,12.6
			c-17.1,3.7-34.2,7.4-51.2,11.1c-19.3,4.2-38.6,8.4-57.9,12.5c-15.8,3.4-31.6,6.8-47.4,10.2c-1.4,0.3-2.7,0.6-4.1,0.9
			c-2.1,0.5-2.3,0.7-2.4,3c0,0.8,0,1.6,0,2.3c0,6.7,0,13.4,0,20.1c0,0.9-0.2,1.9,0.4,2.7c1.1,0.3,2,0,2.9-0.2
			c5.9-1.3,11.9-2.6,17.8-3.9c11.6-2.5,23.1-5,34.7-7.5c10.8-2.3,21.6-4.7,32.4-7c13.4-2.9,26.9-5.8,40.3-8.7
			c10.5-2.3,21.1-4.6,31.6-6.9c15.8-3.4,31.6-6.8,47.4-10.2c15.2-3.3,30.4-6.6,45.6-9.9c14.4-3.1,28.9-6.3,43.3-9.4
			c12.2-2.6,24.3-5.3,36.5-7.9c12.7-2.7,25.3-5.5,38-8.2c1.2-0.3,2.4-0.6,3.5-0.9c0.6-0.2,0.9-0.6,0.9-1.1c0.1-0.9,0.1-1.7,0.1-2.6
			c0-12.7,0-25.4,0-38.1c0-0.8,0-1.6-0.1-2.3C469.9,376.3,469.7,376.1,469.6,375.9z M357.2,50.8c-0.2,0.6-0.4,0.9-0.5,1.2
			c-0.2,1.7-0.4,3.5-0.6,5.2c-0.5,5.1-1,10.2-1.5,15.3c0,0.3,0,0.7-0.1,1c-0.1,1.2,0.3,2,1.4,2.5c1.1,0.5,2.1,1.2,3.2,1.8
			c10.5,5.6,20.3,12.1,29.8,19.3c5.1,3.8,10,7.8,14.7,12.1c3.4,3.1,6.9,6.2,10.2,9.3c1.9,1.9,3.7,4,5.6,5.9
			c3.4,3.5,6.6,7.1,9.8,10.8c4.6,5.4,8.9,11.1,13,17c5,7.2,9.5,14.6,13.6,22.2c3.3,6.2,6.3,12.6,9,19.1c3.3,7.9,6.1,15.9,8.4,24.1
			c1.4,5.3,2.8,10.6,4,15.9c1,4.8,1.7,9.6,2.5,14.4c0.5,3.3,0.9,6.5,1.2,9.8c0.3,3.2,0.4,6.4,0.6,9.6c0,0.3,0.1,0.7,0.1,1
			c0.1,1.9,0.3,3.8,0.4,5.7c0.1,1.7,0,3.3,0,5c0,0.5,0.1,1,0.2,1.5c1,0,1.3-0.7,1.8-1.2c2.3-2.6,4.6-5.2,6.9-7.8
			c2.6-2.8,5.2-5.6,7.8-8.4c1-1.1,1.6-2.2,1.6-3.7c0-1.7,0.3-3.5,0.3-5.2c0-1,0-2.1-0.1-3.1c0-0.7-0.2-1.4-0.2-2.1
			c-0.1-4.3,0-8.7-0.5-13c-0.5-4.1-0.7-8.3-1.3-12.4c-0.6-4.3-1.5-8.6-2.3-12.8c-1.2-6.3-2.9-12.5-4.8-18.7
			c-2.6-8.3-5.8-16.4-9.5-24.3c-4-8.5-8.6-16.7-13.7-24.6c-4.1-6.3-8.5-12.3-13.2-18.1c-3.4-4.2-6.9-8.3-10.6-12.2
			c-5.3-5.5-10.7-11-16.4-16.1c-4.8-4.2-9.6-8.3-14.6-12.2c-9.8-7.6-20-14.5-30.7-20.8c-7.6-4.4-15.4-8.5-23.3-12.3
			C358.8,51.4,358.1,51.2,357.2,50.8z M231.7,201.7c-0.3,0.1-0.5,0.1-0.7,0.1c-0.3,0.2-0.6,0.4-0.9,0.6c-2.8,2.3-5.3,4.8-7.5,7.6
			c-2.9,3.7-5,7.7-6.4,12.2c-0.4,1.3-0.7,2.7-0.7,4.1c0,2.8,0,5.6,0,8.4c0,2.3,0.5,4.5,1.3,6.6c2.2,5.9,5.7,10.9,10.3,15.2
			c4,3.8,8.5,6.9,13.4,9.4c10.9,5.7,22.5,8.2,34.6,8.7c6.1,0.2,12.2-0.4,18.2-1.4c8.5-1.5,16.5-4.3,23.9-8.6
			c6.4-3.7,12-8.3,16.4-14.3c4.8-6.6,7.1-13.9,6.8-22c-0.1-3.1-0.5-6.2-0.9-9.3c-0.8-7.4-2.2-14.6-4.3-21.7c-0.8-2.7-1.7-5.3-2.5-8
			c-0.1-0.4-0.3-0.8-0.9-0.9c-0.8,0.4-0.9,1.2-1.3,1.8c-3.2,6.2-7,12-11.8,17.1c-4.5,4.8-9.6,8.9-15.5,11.8
			c-6.9,3.5-14.2,5.1-21.9,5.2c-3.2,0-6.4-0.1-9.6-0.4c-6.5-0.6-12.9-1.9-19-4.3c-8.5-3.4-15.4-8.7-20.2-16.6
			C232.4,202.5,232,202.1,231.7,201.7z M269,107.8c-0.8,0.7-1.3,1.1-1.8,1.6c-1.4,1.6-2.8,3.1-4.1,4.7c-3.8,4.6-6.9,9.6-9.2,15.1
			c-2.1,4.8-2.7,9.7-2.1,14.8c0.6,5.3,3.3,9.4,7.8,12.4c2.8,1.9,5.8,3.1,9.1,3.9c5.2,1.4,10.6,1.9,16,2c1,0,2.1,0,3.1,0
			c2.1,0,4.7,1.7,5.1,4.7c0.4,2.7-1.3,5.2-4,6c-1.2,0.3-2.6,0.5-3.9,0.5c-4.2,0.1-8.3-0.3-12.5-0.9c-4.4-0.6-8.7-1.8-12.8-3.4
			c-0.9-0.4-1.7-0.8-2.6-1.2c-0.7-0.3-1.3-0.3-2,0.2c-0.7,0.5-1.5,0.9-2.2,1.4c-3.2,2.2-6.3,4.6-9,7.5c-4.7,5.1-5.6,10.8-2.9,17.2
			c1.1,2.6,2.6,4.9,4.5,7c3.5,3.8,7.8,6.4,12.6,8.1c4.7,1.7,9.5,2.7,14.5,3.2c4.7,0.5,9.4,0.6,14,0c5-0.7,9.6-2.3,14-4.8
			c5.3-3.1,9.6-7.2,13.3-12c4.2-5.4,7.3-11.4,10-17.7c0.5-1.3,1-2.6,1.5-3.9c0.4-1.1,0.4-2.2-0.3-3.2c-0.5-0.8-0.9-1.7-1.4-2.5
			c-3-5.3-6.3-10.4-10.1-15.2c-1.5-1.9-3.2-3.7-5.1-5.2c-9.5-7.6-18.5-15.6-26.8-24.4c-4.1-4.4-8-9-11.3-14
			C270.1,109.1,269.6,108.6,269,107.8z M499.8,280.1c-0.5,0.4-0.9,0.7-1.1,1c-1.4,1.5-2.8,3.1-4.2,4.6c-3.4,3.8-6.9,7.6-10.4,11.4
			c-2.8,3-2.7,2.1-2.7,6.9c0,36.1,0,72.2,0,108.3c0,0.8,0,1.6,0,2.3c0,0.3,0.1,0.7,0.1,1c0.1,0.5,0.5,0.7,1,0.7c0.3,0,0.7-0.1,1-0.2
			c4.2-1.4,8.4-2.8,12.6-4.3c4.2-1.5,4-0.5,4-5.9c0-35.1,0-70.1,0.1-105.2c0-5.9,0-11.8,0-17.7C500.3,282.1,500.4,281.2,499.8,280.1
			z"/>
		<linearGradient id="SVGID_1_" gradientUnits="userSpaceOnUse" x1="105.2364" y1="227.583" x2="470.4223" y2="227.583">
			<stop  offset="0.1189" style="stop-color:#52AAD7"/>
			<stop  offset="0.3317" style="stop-color:#4F97D6"/>
			<stop  offset="0.7609" style="stop-color:#4866D3"/>
			<stop  offset="1" style="stop-color:#4448D1"/>
		</linearGradient>
		<path class="st0" d="M105.2,368.7c0.2-0.4,0.4-0.9,0.7-1.3c3.8-4.3,7.5-8.7,11.3-13c3.8-4.4,7.6-8.8,11.4-13.2
			c3.8-4.3,7.5-8.7,11.3-13c4.1-4.7,8.2-9.5,12.3-14.2c3.7-4.3,7.4-8.5,11.1-12.8c4-4.6,7.9-9.2,11.9-13.8c2.8-3.2,5.6-6.4,8.4-9.6
			c2.6-3,5.1-5.9,7.7-8.9c2.8-3.2,5.6-6.5,8.3-9.7c2-2.3,4-4.6,6-6.9c0.7-0.8,1.3-1.6,2-2.1c0.8-0.1,1,0.4,1.2,0.8
			c2.4,4.6,5.5,8.7,9.1,12.4c4.1,4.2,8.7,7.7,13.8,10.7c9.8,5.8,20.4,9.3,31.6,10.9c5.2,0.8,10.5,1.3,15.9,1.1
			c14.8-0.4,29-3.5,42.1-10.6c6.8-3.7,12.9-8.2,18.1-14c5.4-6,9.3-12.8,11.2-20.7c0.6-2.5,1-4.9,1-7.5c0-3.6,0.1-7.1-0.1-10.7
			c-0.2-3.2-0.7-6.4-1.1-9.6c-1.4-9.3-3.5-18.4-6.6-27.3c-3.7-10.7-8.6-20.9-14.8-30.4c-1.8-2.8-3.8-5.6-5.8-8.4
			c-2.4-3.3-5.1-6.1-8.4-8.5c-1.7-1.3-3.4-2.7-5.1-4.1c-0.3-0.2-0.4-0.5-0.7-0.9c0.3-0.5,0.4-0.9,0.8-1.3
			c4.9-5.7,9.8-11.3,14.7-16.9c3.8-4.3,7.5-8.7,11.2-13.1c4.2-4.9,8.5-9.7,12.7-14.6c0.3-0.4,0.6-0.8,0.9-1.3
			c0.8,0.3,1.3,0.4,1.7,0.6c5.6,2.8,11,6,16.2,9.4c7.5,4.9,14.8,10.1,21.7,15.8c3.5,2.9,6.9,5.9,10.2,8.9c2.7,2.4,5.4,4.9,8,7.5
			c11.4,11.4,21.5,23.9,30.2,37.5c7.8,12.2,14.2,25.1,19.3,38.7c4.2,11.1,7.4,22.5,9.6,34.1c1.3,6.7,2.3,13.4,2.9,20.1
			c0.5,5.3,0.9,10.6,1,15.9c0.1,3.6,0.4,7.3,0.3,10.9c-0.1,1.9-0.2,3.8-0.4,5.7c-0.1,0.9-0.6,1.4-1.4,1.6c-2.9,0.6-5.8,1.3-8.7,1.9
			c-13.1,2.8-26.2,5.5-39.3,8.3c-18.3,3.8-36.6,7.7-54.9,11.5c-20.7,4.3-41.4,8.7-62,13c-18.9,4-37.8,7.9-56.7,11.9
			c-16.6,3.5-33.2,7-49.8,10.5c-14.7,3.1-29.4,6.2-44.2,9.3c-11.1,2.3-22.1,4.7-33.2,7c-4.2,0.9-8.3,1.7-12.5,2.6
			C106.7,369,106,369.3,105.2,368.7z"/>
		<linearGradient id="SVGID_2_" gradientUnits="userSpaceOnUse" x1="94.4639" y1="383.3723" x2="470.0214" y2="383.3723">
			<stop  offset="8.648649e-02" style="stop-color:#857BE1"/>
			<stop  offset="0.4509" style="stop-color:#947EE2"/>
			<stop  offset="1" style="stop-color:#B384E3"/>
		</linearGradient>
		<path class="st1" d="M94.9,461.7c-0.6-1-0.5-1.8-0.5-2.7c0-2.8,0-5.6,0-8.4c0-21.1,0-42.1,0-63.2c0-0.7,0-1.4,0-2.1
			c0.1-2,0.2-2.1,2.2-2.6c1-0.3,2-0.5,3.1-0.7c14-2.9,27.9-5.9,41.9-8.8c12.9-2.7,25.9-5.4,38.8-8.1c11.1-2.3,22.1-4.7,33.2-7
			c9.3-2,18.6-3.9,27.8-5.8c9.8-2.1,19.6-4.1,29.4-6.2c15.5-3.2,31-6.5,46.5-9.7c15.2-3.2,30.5-6.4,45.7-9.6c13-2.7,26-5.4,39.1-8.1
			c9.3-1.9,18.5-3.9,27.8-5.9c11.4-2.4,22.8-4.8,34.2-7.2c1.1-0.2,2.2-0.5,3.3-0.7c0.5-0.1,1-0.1,1.5-0.1c0.5,0,0.8,0.3,0.9,0.8
			c0.1,0.6,0.2,1.2,0.2,1.8c0,11.9,0.1,23.8-0.1,35.8c-0.2,9.8-3.8,18.5-10.1,26c-5.7,6.7-12.7,11.6-20.3,15.7
			c-3.3,1.8-6.8,3.2-10.3,4.5c-3,1.2-6.2,1.8-9.3,2.5c-9.6,2.1-19.2,4.1-28.8,6.2c-13.8,3-27.5,6-41.3,9
			c-16.6,3.6-33.2,7.1-49.7,10.7c-12.3,2.7-24.6,5.3-37,8c-14.6,3.2-29.2,6.3-43.9,9.5c-14.4,3.1-28.7,6.2-43.1,9.3
			c-15.1,3.3-30.3,6.5-45.4,9.7c-10.9,2.3-21.8,4.7-32.6,7.1C97.1,461.6,96.1,462.1,94.9,461.7z"/>
		<linearGradient id="SVGID_3_" gradientUnits="userSpaceOnUse" x1="94.4711" y1="438.8354" x2="469.958" y2="438.8354">
			<stop  offset="0" style="stop-color:#9452D7"/>
			<stop  offset="1" style="stop-color:#5F52D7"/>
		</linearGradient>
		<path class="st2" d="M469.6,375.9c0.1,0.2,0.3,0.4,0.3,0.7c0.1,0.8,0.1,1.6,0.1,2.3c0,12.7,0,25.4,0,38.1c0,0.9,0,1.7-0.1,2.6
			c0,0.6-0.4,1-0.9,1.1c-1.2,0.3-2.3,0.6-3.5,0.9c-12.7,2.7-25.3,5.5-38,8.2c-12.2,2.6-24.3,5.3-36.5,7.9
			c-14.4,3.1-28.9,6.3-43.3,9.4c-15.2,3.3-30.4,6.6-45.6,9.9c-15.8,3.4-31.6,6.8-47.4,10.2c-10.5,2.3-21.1,4.6-31.6,6.9
			c-13.4,2.9-26.9,5.8-40.3,8.7c-10.8,2.3-21.6,4.7-32.4,7c-11.6,2.5-23.1,5-34.7,7.5c-5.9,1.3-11.9,2.6-17.8,3.9
			c-0.9,0.2-1.8,0.5-2.9,0.2c-0.6-0.8-0.4-1.8-0.4-2.7c0-6.7,0-13.4,0-20.1c0-0.8,0-1.6,0-2.3c0.1-2.3,0.2-2.5,2.4-3
			c1.4-0.3,2.7-0.6,4.1-0.9c15.8-3.4,31.6-6.8,47.4-10.2c19.3-4.2,38.6-8.3,57.9-12.5c17.1-3.7,34.2-7.4,51.2-11.1
			c19.4-4.2,38.8-8.4,58.1-12.6c14.5-3.1,29.1-6.3,43.6-9.4c15.8-3.4,31.6-6.8,47.4-10.2c6.5-1.4,13.1-2.8,19.6-4.2
			c4.4-1,8.5-2.6,12.5-4.4c6.9-3.1,13.5-6.8,19.5-11.5c3.4-2.7,6.7-5.5,9.5-8.9C468.2,376.8,468.6,376.1,469.6,375.9z"/>
		<linearGradient id="SVGID_4_" gradientUnits="userSpaceOnUse" x1="354.5782" y1="165.7867" x2="500.6083" y2="165.7867">
			<stop  offset="0" style="stop-color:#571792"/>
			<stop  offset="1" style="stop-color:#161C6F"/>
		</linearGradient>
		<path class="st3" d="M357.2,50.8c0.9,0.4,1.5,0.6,2.2,0.9c7.9,3.9,15.7,7.9,23.3,12.3c10.7,6.3,20.9,13.2,30.7,20.8
			c5,3.9,9.9,8,14.6,12.2c5.7,5.1,11.1,10.5,16.4,16.1c3.7,3.9,7.2,8,10.6,12.2c4.7,5.8,9.1,11.9,13.2,18.1
			c5.1,7.9,9.8,16.1,13.7,24.6c3.7,7.9,6.9,16,9.5,24.3c1.9,6.1,3.6,12.3,4.8,18.7c0.8,4.3,1.7,8.5,2.3,12.8
			c0.6,4.1,0.8,8.3,1.3,12.4c0.6,4.3,0.4,8.7,0.5,13c0,0.7,0.2,1.4,0.2,2.1c0.1,1,0.1,2.1,0.1,3.1c-0.1,1.7-0.3,3.5-0.3,5.2
			c0,1.5-0.6,2.6-1.6,3.7c-2.7,2.8-5.2,5.6-7.8,8.4c-2.3,2.6-4.6,5.2-6.9,7.8c-0.4,0.5-0.8,1.2-1.8,1.2c-0.1-0.5-0.2-1-0.2-1.5
			c0-1.7,0-3.3,0-5c-0.1-1.9-0.2-3.8-0.4-5.7c0-0.3-0.1-0.7-0.1-1c-0.2-3.2-0.3-6.4-0.6-9.6c-0.3-3.3-0.7-6.6-1.2-9.8
			c-0.8-4.8-1.5-9.6-2.5-14.4c-1.1-5.4-2.5-10.7-4-15.9c-2.3-8.2-5-16.3-8.4-24.1c-2.7-6.5-5.7-12.9-9-19.1
			c-4.1-7.7-8.7-15.1-13.6-22.2c-4.1-5.9-8.4-11.5-13-17c-3.2-3.7-6.3-7.4-9.8-10.8c-1.9-1.9-3.6-4-5.6-5.9
			c-3.3-3.2-6.8-6.2-10.2-9.3c-4.7-4.3-9.7-8.2-14.7-12.1c-9.4-7.1-19.3-13.7-29.8-19.3c-1.1-0.6-2.1-1.2-3.2-1.8
			c-1.1-0.5-1.5-1.4-1.4-2.5c0-0.3,0-0.7,0.1-1c0.5-5.1,1-10.2,1.5-15.3c0.2-1.7,0.4-3.5,0.6-5.2C356.8,51.8,357,51.5,357.2,50.8z"
			/>
		<path class="st4" d="M231.7,201.7c0.3,0.4,0.7,0.8,1,1.3c4.8,7.9,11.7,13.2,20.2,16.6c6.1,2.4,12.5,3.7,19,4.3
			c3.2,0.3,6.4,0.4,9.6,0.4c7.7-0.1,15-1.8,21.9-5.2c5.9-3,11-7,15.5-11.8c4.8-5.1,8.6-10.9,11.8-17.1c0.3-0.7,0.5-1.5,1.3-1.8
			c0.6,0,0.7,0.5,0.9,0.9c0.8,2.7,1.7,5.3,2.5,8c2,7.1,3.5,14.4,4.3,21.7c0.3,3.1,0.7,6.2,0.9,9.3c0.3,8.1-2,15.5-6.8,22
			c-4.4,6-10,10.6-16.4,14.3c-7.5,4.3-15.5,7.1-23.9,8.6c-6,1.1-12.1,1.7-18.2,1.4c-12.1-0.5-23.8-3-34.6-8.7
			c-4.9-2.6-9.4-5.7-13.4-9.4c-4.6-4.3-8.1-9.3-10.3-15.2c-0.8-2.1-1.3-4.3-1.3-6.6c0-2.8,0-5.6,0-8.4c0-1.4,0.2-2.8,0.7-4.1
			c1.3-4.5,3.5-8.5,6.4-12.2c2.2-2.8,4.7-5.3,7.5-7.6c0.3-0.2,0.6-0.4,0.9-0.6C231.1,201.7,231.3,201.7,231.7,201.7z"/>
		<path class="st4" d="M269,107.8c0.6,0.8,1.1,1.3,1.5,1.9c3.3,5,7.2,9.6,11.3,14c8.3,8.8,17.3,16.8,26.8,24.4
			c1.9,1.5,3.6,3.3,5.1,5.2c3.7,4.8,7,9.9,10.1,15.2c0.5,0.8,0.9,1.7,1.4,2.5c0.6,1.1,0.7,2.1,0.3,3.2c-0.5,1.3-0.9,2.6-1.5,3.9
			c-2.7,6.3-5.8,12.3-10,17.7c-3.7,4.8-8,8.9-13.3,12c-4.3,2.5-9,4.1-14,4.8c-4.7,0.7-9.4,0.5-14,0c-5-0.5-9.8-1.4-14.5-3.2
			c-4.8-1.8-9.1-4.3-12.6-8.1c-1.9-2.1-3.4-4.4-4.5-7c-2.6-6.3-1.7-12.1,2.9-17.2c2.7-2.9,5.8-5.3,9-7.5c0.7-0.5,1.5-0.9,2.2-1.4
			c0.6-0.4,1.3-0.5,2-0.2c0.9,0.4,1.7,0.8,2.6,1.2c4.1,1.7,8.4,2.8,12.8,3.4c4.1,0.6,8.3,1,12.5,0.9c1.3,0,2.6-0.2,3.9-0.5
			c2.7-0.7,4.3-3.3,4-6c-0.4-3-3-4.7-5.1-4.7c-1,0-2.1,0-3.1,0c-5.4-0.1-10.8-0.6-16-2c-3.2-0.9-6.3-2.1-9.1-3.9
			c-4.4-3-7.2-7.1-7.8-12.4c-0.6-5.1,0.1-10,2.1-14.8c2.4-5.5,5.5-10.5,9.2-15.1c1.3-1.6,2.7-3.2,4.1-4.7
			C267.6,108.9,268.2,108.5,269,107.8z"/>
		<linearGradient id="SVGID_5_" gradientUnits="userSpaceOnUse" x1="490.8758" y1="287.7631" x2="490.8758" y2="414.123">
			<stop  offset="0" style="stop-color:#571792"/>
			<stop  offset="1" style="stop-color:#161C6F"/>
		</linearGradient>
		<path class="st5" d="M499.8,280.1c0.6,1.1,0.4,2,0.4,2.8c0,5.9,0,11.8,0,17.7c0,35.1,0,70.1-0.1,105.2c0,5.4,0.2,4.4-4,5.9
			c-4.2,1.5-8.4,2.9-12.6,4.3c-0.3,0.1-0.7,0.2-1,0.2c-0.5,0-0.8-0.2-1-0.7c-0.1-0.3-0.1-0.7-0.1-1c0-0.8,0-1.6,0-2.3
			c0-36.1,0-72.2,0-108.3c0-4.8-0.2-3.9,2.7-6.9c3.5-3.8,6.9-7.6,10.4-11.4c1.4-1.5,2.8-3.1,4.2-4.6
			C499,280.8,499.3,280.5,499.8,280.1z"/>
	</g>
</g>
</svg>
