<svg xmlns="http://www.w3.org/2000/svg" viewBox="0 0 20.183 13.548">
  <defs>
    <style>
      .cls-1 {
        fill: #cfff9e;
      }
    </style>
  </defs>
  <g id="money-scale" transform="translate(0 0)">
    <path id="Path_35" data-name="Path 35" class="cls-1" d="M20.183,12.575l-.039-.072v-.013h-.01l-3.525-6.6h.514V5.257h-.852l-.021-.039-.02.039H3.953l-.02-.039-.02.039H3.059v.636h.514L.046,12.488H.039V12.5L0,12.574l.039.021v.21a3.859,3.859,0,0,0,3.894,3.815A3.859,3.859,0,0,0,7.827,12.8v-.21l.039-.021L7.827,12.5v-.013H7.819l-3.526-6.6H9.456v.4H6.873v.636H9.456v10.57H6.873v1.272H13.31V17.495H10.727V6.925H13.31V6.289H10.727v-.4H15.89l-3.527,6.6h-.008V12.5l-.039.072.039.021v.21a3.895,3.895,0,0,0,7.788,0v-.21ZM.767,12.488,3.932,6.566,7.1,12.488ZM16.251,6.566l3.165,5.922H13.084Z" transform="translate(0 -5.218)"/>
  </g>
</svg>
