<svg viewBox="0 0 512.00887 512" xmlns="http://www.w3.org/2000/svg"><path d="m86.527344 86.53125h43.203125v43.1875h-43.203125zm0 0"/><path d="m129.730469 146.101562h-43.203125c-9.050782 0-16.382813-7.339843-16.382813-16.382812v-43.1875c0-9.050781 7.339844-16.382812 16.382813-16.382812h43.203125c9.050781 0 16.382812 7.339843 16.382812 16.382812v43.1875c0 9.042969-7.339843 16.382812-16.382812 16.382812zm-26.820313-32.765624h10.4375v-10.421876h-10.4375zm0 0"/><path d="m321.378906 416.460938h27.777344v27.804687h-27.777344zm0 0"/><path d="m349.15625 460.636719h-27.777344c-9.050781 0-16.390625-7.328125-16.390625-16.382813v-27.804687c0-9.050781 7.339844-16.382813 16.390625-16.382813h27.777344c9.054688 0 16.394531 7.332032 16.394531 16.382813v27.804687c-.011719 9.054688-7.347656 16.382813-16.394531 16.382813zm0 0"/><path d="m370.207031 367.640625h27.769531v27.777344h-27.769531zm0 0"/><path d="m397.976562 411.792969h-27.769531c-9.050781 0-16.390625-7.332031-16.390625-16.382813v-27.78125c0-9.050781 7.339844-16.390625 16.390625-16.390625h27.769531c9.054688 0 16.382813 7.339844 16.382813 16.390625v27.78125c-.007813 9.050782-7.339844 16.382813-16.382813 16.382813zm0 0"/><path d="m272.585938 367.640625h27.769531v27.777344h-27.769531zm0 0"/><path d="m300.355469 411.792969h-27.769531c-9.050782 0-16.390626-7.332031-16.390626-16.382813v-27.78125c0-9.050781 7.339844-16.390625 16.390626-16.390625h27.769531c9.050781 0 16.382812 7.339844 16.382812 16.390625v27.78125c-.007812 9.050782-7.339843 16.382813-16.382812 16.382813zm0 0"/><path d="m467.847656 367.640625h27.769532v27.777344h-27.769532zm0 0"/><path d="m495.617188 411.792969h-27.769532c-9.050781 0-16.390625-7.332031-16.390625-16.382813v-27.78125c0-9.050781 7.339844-16.390625 16.390625-16.390625h27.769532c9.050781 0 16.390624 7.339844 16.390624 16.390625v27.78125c-.007812 9.050782-7.347656 16.382813-16.390624 16.382813zm0 0"/><path d="m467.847656 270.019531h27.769532v27.777344h-27.769532zm0 0"/><path d="m495.617188 314.167969h-27.769532c-9.050781 0-16.390625-7.328125-16.390625-16.382813v-27.777344c0-9.050781 7.339844-16.382812 16.390625-16.382812h27.769532c9.050781 0 16.390624 7.339844 16.390624 16.382812v27.777344c-.007812 9.054688-7.347656 16.382813-16.390624 16.382813zm0 0"/><path d="m370.226562 270.019531h27.769532v27.777344h-27.769532zm0 0"/><path d="m397.996094 314.167969h-27.769532c-9.050781 0-16.390624-7.328125-16.390624-16.382813v-27.777344c0-9.050781 7.339843-16.382812 16.390624-16.382812h27.769532c9.050781 0 16.390625 7.339844 16.390625 16.382812v27.777344c-.007813 9.054688-7.347657 16.382813-16.390625 16.382813zm0 0"/><path d="m272.605469 270.019531h27.769531v27.777344h-27.769531zm0 0"/><path d="m300.375 314.167969h-27.769531c-9.054688 0-16.390625-7.328125-16.390625-16.382813v-27.777344c0-9.050781 7.335937-16.382812 16.390625-16.382812h27.769531c9.050781 0 16.390625 7.339844 16.390625 16.382812v27.777344c-.007813 9.054688-7.347656 16.382813-16.390625 16.382813zm0 0"/><path d="m419.019531 318.820312h27.785157v27.785157h-27.785157zm0 0"/><path d="m446.804688 362.980469h-27.785157c-9.050781 0-16.382812-7.332031-16.382812-16.382813v-27.785156c0-9.054688 7.332031-16.382812 16.382812-16.382812h27.785157c9.054687 0 16.382812 7.328124 16.382812 16.382812v27.785156c-.007812 9.050782-7.335938 16.382813-16.382812 16.382813zm0 0"/><path d="m419.019531 467.835938h27.785157v27.785156h-27.785157zm0 0"/><path d="m446.804688 511.996094h-27.785157c-9.050781 0-16.382812-7.332032-16.382812-16.382813v-27.789062c0-9.050781 7.332031-16.390625 16.382812-16.390625h27.785157c9.054687 0 16.382812 7.339844 16.382812 16.390625v27.789062c-.007812 9.050781-7.335938 16.382813-16.382812 16.382813zm0 0"/><path d="m356.800781 86.523438h43.183594v43.195312h-43.183594zm0 0"/><path d="m399.984375 146.101562h-43.183594c-9.054687 0-16.394531-7.339843-16.394531-16.382812v-43.195312c0-9.050782 7.339844-16.382813 16.394531-16.382813h43.183594c9.050781 0 16.382813 7.339844 16.382813 16.382813v43.195312c0 9.042969-7.332032 16.382812-16.382813 16.382812zm-26.792969-32.765624h10.417969v-10.421876h-10.417969zm0 0"/><path d="m470.15625 216.261719h-183.511719c-9.050781 0-16.390625-7.335938-16.390625-16.382813v-183.492187c0-9.050781 7.339844-16.38281275 16.390625-16.38281275h183.511719c9.050781 0 16.382812 7.33984375 16.382812 16.38281275s-7.332031 16.382812-16.382812 16.382812h-167.128906v150.71875h150.746094v-122.65625c0-9.050781 7.328124-16.382812 16.382812-16.382812 9.050781 0 16.382812 7.339843 16.382812 16.382812v139.039063c-.007812 9.054687-7.339843 16.390625-16.382812 16.390625zm0 0"/><path d="m199.894531 216.261719h-183.511719c-9.042968 0-16.382812-7.335938-16.382812-16.390625v-183.484375c0-9.050781 7.339844-16.38281275 16.382812-16.38281275h183.511719c9.050781 0 16.382813 7.33984375 16.382813 16.38281275s-7.339844 16.382812-16.382813 16.382812h-167.128906v150.71875h150.746094v-122.65625c0-9.050781 7.339843-16.382812 16.382812-16.382812s16.382813 7.339843 16.382813 16.382812v139.039063c.007812 9.054687-7.332032 16.390625-16.382813 16.390625zm0 0"/><path d="m199.894531 486.089844h-183.511719c-9.042968 0-16.382812-7.339844-16.382812-16.382813v-183.492187c0-9.054688 7.339844-16.382813 16.382812-16.382813h183.511719c9.050781 0 16.382813 7.328125 16.382813 16.382813 0 9.050781-7.339844 16.390625-16.382813 16.390625h-167.128906v150.71875h150.746094v-122.65625c0-9.054688 7.339843-16.390625 16.382812-16.390625s16.382813 7.335937 16.382813 16.390625v139.039062c.007812 9.042969-7.332032 16.382813-16.382813 16.382813zm0 0"/><path d="m86.910156 356.378906h43.191406v43.183594h-43.191406zm0 0"/><path d="m130.113281 415.953125h-43.203125c-9.050781 0-16.382812-7.339844-16.382812-16.390625v-43.183594c0-9.054687 7.339844-16.394531 16.382812-16.394531h43.191406c9.054688 0 16.382813 7.339844 16.382813 16.394531v43.183594c.011719 9.050781-7.328125 16.390625-16.371094 16.390625zm-26.8125-32.773437h10.429688v-10.417969h-10.429688zm0 0"/></svg>