<?xml version="1.0" encoding="iso-8859-1"?>
<!-- Generator: Adobe Illustrator 19.0.0, SVG Export Plug-In . SVG Version: 6.00 Build 0)  -->
<svg version="1.1" id="Capa_1" xmlns="http://www.w3.org/2000/svg" xmlns:xlink="http://www.w3.org/1999/xlink" x="0px" y="0px"
	 viewBox="0 0 436.925 436.925" style="enable-background:new 0 0 436.925 436.925;" xml:space="preserve">
<g>
	<g>
		<path d="M432.335,6.596c-4.608-4.608-10.24-5.632-15.36-3.584L72.399,141.252c-5.632,2.048-9.216,8.192-9.216,13.824
			c0,5.632,4.608,11.264,10.24,13.312l151.04,46.592l46.592,150.528c1.536,5.632,6.656,9.728,13.312,10.24h0.512
			c5.632,0,10.752-3.584,13.312-9.216L435.919,21.956C437.967,16.836,436.943,10.692,432.335,6.596z"/>
	</g>
</g>
<g>
	<g>
		
			<rect x="35.428" y="331.571" transform="matrix(0.7071 -0.7071 0.7071 0.7071 -218.5456 164.1975)" width="107.007" height="28.672"/>
	</g>
</g>
<g>
	<g>
		
			<rect x="-5.534" y="250.245" transform="matrix(0.7071 -0.7071 0.7071 0.7071 -173.0372 111.4137)" width="107.007" height="28.672"/>
	</g>
</g>
<g>
	<g>
		
			<rect x="116.428" y="372.613" transform="matrix(0.7071 -0.7071 0.7071 0.7071 -223.8427 233.4943)" width="107.007" height="28.672"/>
	</g>
</g>
<g>
</g>
<g>
</g>
<g>
</g>
<g>
</g>
<g>
</g>
<g>
</g>
<g>
</g>
<g>
</g>
<g>
</g>
<g>
</g>
<g>
</g>
<g>
</g>
<g>
</g>
<g>
</g>
<g>
</g>
</svg>
