<svg xmlns="http://www.w3.org/2000/svg" xmlns:xlink="http://www.w3.org/1999/xlink" viewBox="0 0 66 66.001">
  <defs>
    <style>
      .cls-1 {
        fill-rule: evenodd;
        fill: url(#linear-gradient);
      }

      .cls-2 {
        filter: url(#Path_29);
      }
    </style>
    <linearGradient id="linear-gradient" x1="0.5" x2="0.5" y2="1" gradientUnits="objectBoundingBox">
      <stop offset="0" stop-color="#ff8989"/>
      <stop offset="1" stop-color="#fff7ae"/>
    </linearGradient>
    <filter id="Path_29" x="0" y="0" width="66" height="66.001" filterUnits="userSpaceOnUse">
      <feOffset input="SourceAlpha"/>
      <feGaussianBlur stdDeviation="7.5" result="blur"/>
      <feFlood flood-color="#ffb8b8" flood-opacity="0.851"/>
      <feComposite operator="in" in2="blur"/>
      <feComposite in="SourceGraphic"/>
    </filter>
  </defs>
  <g id="settings-work-tool" transform="translate(22.497 22.5)">
    <g id="Group_39" data-name="Group 39" transform="translate(0.003 0)">
      <g class="cls-2" transform="matrix(1, 0, 0, 1, -22.5, -22.5)">
        <path id="Path_29-2" data-name="Path 29" class="cls-1" d="M20.937,9.335a.684.684,0,0,0-.675-.517,2.319,2.319,0,0,1-1.587-4.035.583.583,0,0,0,.064-.792,10.39,10.39,0,0,0-1.663-1.68.584.584,0,0,0-.8.064,2.42,2.42,0,0,1-2.619.588A2.332,2.332,0,0,1,12.24.683.583.583,0,0,0,11.725.07,10.483,10.483,0,0,0,9.363.064a.584.584,0,0,0-.52.6A2.336,2.336,0,0,1,7.4,2.905a2.427,2.427,0,0,1-2.6-.592.586.586,0,0,0-.792-.067,10.43,10.43,0,0,0-1.7,1.679.584.584,0,0,0,.063.8,2.327,2.327,0,0,1,.587,2.62A2.428,2.428,0,0,1,.68,8.763a.571.571,0,0,0-.607.515,10.519,10.519,0,0,0,0,2.388.7.7,0,0,0,.689.516,2.3,2.3,0,0,1,2.16,1.439,2.335,2.335,0,0,1-.587,2.6.584.584,0,0,0-.064.791A10.428,10.428,0,0,0,3.928,18.69a.584.584,0,0,0,.8-.063,2.416,2.416,0,0,1,2.618-.589,2.329,2.329,0,0,1,1.421,2.279.583.583,0,0,0,.515.613,10.45,10.45,0,0,0,2.362.006.584.584,0,0,0,.52-.6A2.334,2.334,0,0,1,13.6,18.1a2.423,2.423,0,0,1,2.6.592.587.587,0,0,0,.792.066,10.454,10.454,0,0,0,1.7-1.679.583.583,0,0,0-.063-.8,2.327,2.327,0,0,1-.588-2.619,2.351,2.351,0,0,1,2.148-1.423l.13,0a.584.584,0,0,0,.615-.515A10.51,10.51,0,0,0,20.937,9.335ZM10.519,14.025a3.5,3.5,0,1,1,3.5-3.5A3.506,3.506,0,0,1,10.519,14.025Z" transform="translate(22.5 22.5)"/>
      </g>
    </g>
  </g>
</svg>
