<svg xmlns="http://www.w3.org/2000/svg" viewBox="0 0 16.75 14.583">
  <defs>
    <style>
      .cls-1 {
        fill: #89fff2;
      }
    </style>
  </defs>
  <path id="XMLID_497_" class="cls-1" d="M.3,26.393l3.859,1.44,1.494,4.8a.454.454,0,0,0,.722.217L8.522,31.1a.642.642,0,0,1,.782-.022l3.88,2.817a.455.455,0,0,0,.713-.275L16.74,19.949a.455.455,0,0,0-.609-.517L.291,25.542A.455.455,0,0,0,.3,26.393Zm5.112.674,7.543-4.646a.131.131,0,0,1,.159.208L6.885,28.416a1.29,1.29,0,0,0-.4.772l-.212,1.571a.2.2,0,0,1-.381.028l-.816-2.866A.759.759,0,0,1,5.408,27.067Z" transform="translate(0 -19.401)"/>
</svg>
