<svg height="511pt" viewBox="0 0 511 511.9995" width="511pt" xmlns="http://www.w3.org/2000/svg"><path d="m180.074219 196.433594c0 74.964844 60.992187 135.953125 135.957031 135.953125 74.96875 0 135.960938-60.988281 135.960938-135.953125s-60.988282-135.957032-135.957032-135.957032-135.960937 60.992188-135.960937 135.957032zm30 0c0-58.425782 47.535156-105.957032 105.957031-105.957032 58.425781 0 105.960938 47.53125 105.960938 105.957032 0 58.425781-47.535157 105.957031-105.960938 105.957031-58.421875 0-105.957031-47.535156-105.957031-105.957031zm0 0"/><path d="m18.152344 494.308594c23.589844 23.589844 61.769531 23.585937 85.359375 0l123.039062-123.035156c26.851563 13.796874 57.273438 21.589843 89.484375 21.589843 108.316406 0 196.4375-88.117187 196.4375-196.429687 0-108.316406-88.121094-196.433594-196.4375-196.433594s-196.4375 88.117188-196.4375 196.433594c0 32.207031 7.792969 62.628906 21.589844 89.480468-5.421875 5.425782-117.636719 117.632813-123.039062 123.035157-23.53125 23.53125-23.53125 61.824219.003906 85.359375zm297.882812-131.441406c-91.773437 0-166.4375-74.664063-166.4375-166.433594 0-91.773438 74.664063-166.433594 166.4375-166.433594 91.773438 0 166.4375 74.660156 166.4375 166.433594 0 91.769531-74.664062 166.433594-166.4375 166.433594zm-115.707031-7.796876-39.28125 39.28125-42.9375-42.9375 39.285156-39.277343c12.011719 16.421875 26.507813 30.917969 42.933594 42.933593zm-160.964844 75.089844 57.535157-57.53125 42.933593 42.933594-57.53125 57.53125c-11.867187 11.867188-31.070312 11.867188-42.9375 0-11.835937-11.835938-11.835937-31.097656 0-42.933594zm0 0"/></svg>