<svg height="409pt" viewBox="-68 0 409 409.60384" width="409pt" xmlns="http://www.w3.org/2000/svg"><defs>
    <linearGradient id="grad" x1="0%" y1="0%" x2="100%" y2="0%">
      <stop offset="0%" style="stop-color:rgb(130,214,255);stop-opacity:1" />
      <stop offset="100%" style="stop-color:rgb(231,130,252);stop-opacity:1" />
    </linearGradient>
  </defs><path d="m222.171875 119.464844v-34.136719c0-47.121094-38.199219-85.328125-85.335937-85.328125-47.132813 0-85.335938 38.207031-85.335938 85.335938v34.132812h-51.199219v230.832031l106 53c16.789063 8.402344 44.269531 8.402344 61.070313 0l106-53v-230.835937zm-136.535156-34.128906c0-28.273438 22.917969-51.199219 51.199219-51.199219 28.269531 0 51.199218 22.925781 51.199218 51.199219v34.132812h-102.398437zm153.601562 243.863281-87.136719 43.566406c-2.5 1.25-7.96875 2.699219-15.265624 2.699219-7.296876 0-12.773438-1.449219-15.257813-2.699219l-87.140625-43.566406v-175.597657h204.800781zm0 0" fill="url(#grad)"/><path d="m153.902344 273.066406c0 9.382813-7.679688 17.070313-17.066406 17.070313-9.382813 0-17.070313-7.6875-17.070313-17.070313v-34.132812c0-9.382813 7.6875-17.070313 17.070313-17.070313 9.386718 0 17.066406 7.6875 17.066406 17.070313zm0 0" fill="url(#grad)"/></svg>